<svg version="1.0" xmlns="http://www.w3.org/2000/svg" viewBox="0 0 816 816"><path d="M388.6 1.8c-.3.5-8.7 1.2-18.8 1.6-10 .3-18.7 1.1-19.2 1.6-.6.6-3.4 1-6.3 1s-5.3.4-5.3 1c0 .5-2.2 1-5 1-2.7 0-5 .4-5 .9s-3.4 1.2-7.5 1.6c-4.1.4-7.7 1.1-8.1 1.6-.3.5-2.1.9-4 .9s-3.4.4-3.4 1c0 .5-1.6 1-3.5 1s-3.5.4-3.5.9-2.5 1.2-5.5 1.6c-3 .3-5.7 1.1-6 1.6-.4.5-1.7.9-3 .9s-2.7.4-3 1c-.3.5-1.7 1-3.1 1-1.3 0-2.4.4-2.4 1 0 .5-1 1-2.2 1-1.3 0-3.6.7-5.2 1.5-1.5.8-3.7 1.5-4.7 1.5-1.1 0-1.9.4-1.9 1 0 .5-1.1 1-2.5 1s-2.5.4-2.5 1c0 .5-.9 1-2 1s-2 .4-2 .9-1.5 1.1-3.2 1.5c-4.2.8-8.8 2.9-8.8 3.8 0 .5-.9.8-2 .8s-2 .4-2 1c0 .5-1.6 1.2-3.5 1.6-1.9.3-3.5 1-3.5 1.5s-.6.9-1.3.9c-1.8 0-6.7 2.3-6.7 3.2 0 .3-1.3.9-3 1.3s-3 1.1-3 1.6-.7.9-1.5.9-1.5.4-1.5 1c0 .5-.9 1-2 1s-2 .4-2 .9-1 1.1-2.3 1.5c-1.2.3-3.2 1.4-4.4 2.6-1.2 1.1-2.9 2-3.8 2-.8 0-1.5.4-1.5.9s-1.1 1.2-2.5 1.5c-1.4.4-2.5 1.1-2.5 1.6 0 .6-.6 1-1.4 1-.8 0-2.1.8-2.8 1.8-.7 1-2.5 2.2-4 2.6-1.6.3-2.8 1.1-2.8 1.6 0 .6-.6 1-1.3 1-.7 0-1.9.9-2.7 2-.8 1.1-1.9 2-2.6 2-.6 0-2 .8-3.2 1.7-4.3 3.7-5.8 4.9-8.6 6.7-1.7 1.1-4.1 3-5.3 4.3-1.3 1.2-2.8 2.3-3.2 2.3-.5 0-2.9 2-5.5 4.4-2.5 2.4-5.1 4.6-5.7 4.8-3.5 1.2-43.1 40.9-46.1 46.2-.6 1.1-2.6 3.5-4.5 5.3-1.8 1.9-3.3 3.9-3.3 4.6 0 .7-.9 1.9-2.1 2.7-1.1.8-2.8 2.8-3.6 4.5-.9 1.6-2.4 3.7-3.4 4.6-1.1.9-1.9 2.1-1.9 2.8 0 .6-.4 1.1-.9 1.1s-1.3 1-1.7 2.2c-.4 1.3-1.5 3-2.5 3.9-1.1.9-1.9 2.1-1.9 2.8 0 .6-.4 1.1-1 1.1-.5 0-1.3 1.2-1.6 2.7-.4 1.6-1.6 3.4-2.6 4.1-1 .7-1.8 2-1.8 2.8 0 .8-.4 1.4-1 1.4-.5 0-1.2 1.1-1.6 2.5-.3 1.4-1 2.5-1.5 2.5s-.9.9-.9 2-.4 2-1 2c-.5 0-1 .7-1 1.5s-.4 1.5-1 1.5c-.5 0-1.2 1.1-1.6 2.5-.3 1.4-1 2.5-1.5 2.5s-.9.9-.9 2-.4 2-1 2c-.5 0-1 .7-1 1.5s-.4 1.5-.9 1.5-1.2 1.6-1.5 3.5c-.4 1.9-1.1 3.5-1.6 3.5-.6 0-1 .9-1 2s-.4 2-1 2c-.5 0-1 .7-1 1.5s-.4 1.5-.9 1.5-1.2 1.6-1.5 3.5c-.4 1.9-1.1 3.5-1.6 3.5-.6 0-1 .9-1 2s-.4 2-1 2c-.5 0-1 1.1-1 2.5s-.4 2.5-1 2.5c-.5 0-1 .7-1 1.6 0 .9-.7 3.2-1.6 5.2-.9 2.1-2 4.6-2.4 5.7-.4 1.1-1.5 3.6-2.4 5.7-.9 2-1.6 4.5-1.6 5.6 0 1.2-.5 2.4-1 2.7-.6.3-1 1.7-1 3.1 0 1.3-.4 2.4-1 2.4-.5 0-1 1.1-1 2.5s-.4 2.5-.9 2.5c-.9 0-1.2.9-3.3 11.7-.6 3.5-1.5 6.3-2 6.3-.4 0-.8 1.6-.8 3.5s-.4 3.5-1 3.5c-.5 0-1 1.5-1 3.4s-.4 3.7-.9 4c-.5.4-1.2 4-1.6 8.1-.4 4.1-1.1 7.5-1.6 7.5s-.9 2.2-.9 5c0 2.7-.4 5-1 5s-1 2.6-1 5.8c0 3.2-.5 6.3-1 6.8-.6.6-1.3 9.4-1.7 19.7-.3 10.3-1 18.7-1.5 18.7-1.1 0-1.1 34.7 0 35.4.5.3 1.2 8.5 1.6 18.3.3 9.7 1.1 18.2 1.6 18.7.6.6 1 3.4 1 6.2 0 2.9.5 5.6 1 5.9.6.3 1 2.6 1 5.1 0 2.4.4 4.4.9 4.4s1.2 3.4 1.6 7.5c.4 4.1 1.1 7.7 1.6 8.1.5.3.9 2 .9 3.9s.5 3.7 1 4c.6.3 1 1.9 1 3.5s.4 3.1.9 3.4c.5.3 1.2 3 1.6 6.1.3 3 1.1 5.7 1.6 6 .5.4.9 1.7.9 3s.5 2.7 1 3c.6.3 1 1.7 1 3.1 0 1.3.5 2.4 1 2.4.6 0 1 1.1 1 2.5s.4 2.5.9 2.5c.6 0 1.3 2 1.7 4.5.3 2.5 1 4.5 1.5 4.5s.9 1.1.9 2.5.5 2.5 1 2.5c.6 0 1 .9 1 2s.4 2 .9 2 1.1 1.5 1.5 3.2c.8 4.2 2.9 8.8 3.8 8.8.5 0 .8.9.8 2s.4 2 1 2c.5 0 1.2 1.6 1.6 3.5.3 1.9.9 3.5 1.3 3.5s1.3 1.6 2.1 3.5 1.7 3.5 2.1 3.5c.5 0 1.1 1.6 1.5 3.5.3 1.9 1 3.5 1.5 3.5s.9.7.9 1.5.5 1.5 1 1.5c.6 0 1 .9 1 2s.4 2 .9 2 1.3 1 1.7 2.2c.4 1.3.9 2.5 1.3 2.8.6.5 2.4 3.5 5 8.5.9 1.6 2.3 3.7 3.1 4.5 1.7 1.8 3.3 4.2 5.6 8.7.9 1.8 2 3.3 2.5 3.3s.9.7.9 1.5.4 1.5.9 1.5 1.2.8 1.6 1.9c.3 1 1.9 3.3 3.5 5 1.7 1.7 3 3.5 3 4s1.3 2.2 2.8 3.9c1.5 1.6 3.9 4.6 5.2 6.6 1.4 2 3.3 3.9 4.3 4.2.9.3 1.7 1.2 1.7 2.1 0 .8 2.7 4.2 6 7.5 3.3 3.2 6 6.3 6 6.7 0 1.1 24 25.1 25.1 25.1.4 0 3.4 2.7 6.7 6 3.3 3.3 6.3 6 6.7 6 .3 0 1.3.6 2 1.3.8.6 2.9 2.5 4.7 4 1.8 1.6 4.9 4.1 6.8 5.8 1.9 1.6 3.8 2.9 4.3 2.9.4 0 1.8 1.1 3.1 2.5s3 2.5 3.7 2.5c.8 0 2 .9 2.7 2 .7 1.1 1.9 2 2.7 2 .8 0 2.5 1.1 3.9 2.5s3 2.5 3.6 2.5c.5 0 1 .4 1 1 0 .5 1.1 1.2 2.5 1.6 1.4.3 2.5 1 2.5 1.5s.9.9 1.9.9c1 0 2.1.6 2.4 1.4.3.7 2.6 2.3 5.1 3.6 2.5 1.2 4.6 2.6 4.6 3.1s.9.9 2 .9 2 .4 2 .8 1.2 1.3 2.8 1.9c1.5.7 5 2.6 7.7 4.2 2.8 1.7 5.8 3 6.8 3.1.9 0 1.7.4 1.7 1 0 .5.7 1 1.5 1s1.5.4 1.5 1c0 .5.8 1 1.8 1 .9 0 2.6.7 3.6 1.5 1.1.8 2.8 1.5 3.8 1.5s1.8.4 1.8 1c0 .5.9 1 1.9 1 1.1 0 2.3.4 2.6 1 .3.5 1.5 1 2.6 1 1 0 1.9.4 1.9 1 0 .5 1.8 1.3 4 1.6 2.2.4 4 1 4 1.5s.9.9 2 .9 2 .4 2 1c0 .5.8 1 1.9 1 1 0 3.2.7 4.7 1.5 1.6.8 3.9 1.5 5.2 1.5 1.2 0 2.2.4 2.2 1 0 .5 1.1 1 2.4 1 1.4 0 2.8.4 3.1 1 .3.5 1.7 1 3 1s2.6.4 3 .9c.3.5 3 1.3 6 1.6 3 .4 5.5 1.1 5.5 1.6s1.6.9 3.5.9 3.5.4 3.5 1c0 .5 1.6 1 3.5 1s3.5.4 3.5.9 3.4 1.2 7.5 1.6c4.1.4 7.8 1.1 8.1 1.6.3.5 2.7.9 5.5.9 2.7 0 4.9.4 4.9 1 0 .5 2.4 1 5.3 1s5.7.4 6.3 1c.5.5 10.1 1.3 21.2 1.6 11.1.4 20.2 1.1 20.2 1.6 0 1.1 31.7 1.1 32.4 0 .3-.5 9-1.2 19.3-1.6 10.8-.3 18.9-1.1 19.1-1.6.2-.6 2.8-1 5.7-1 3 0 5.7-.5 6-1 .3-.6 2.6-1 5.1-1 2.4 0 4.4-.4 4.4-.9 0-.4 3.6-1.2 8-1.5 4.4-.4 8.2-1.2 8.5-1.7.4-.5 2.1-.9 4-.9s3.7-.5 4-1c.3-.6 2.2-1 4.1-1 1.9 0 3.4-.4 3.4-.9s2.7-1.2 6-1.6c3.3-.4 6-1.1 6-1.6s1.1-.9 2.4-.9c1.4 0 2.8-.5 3.1-1 .3-.6 1.9-1 3.6-1 1.6 0 2.9-.4 2.9-.9s2-1.2 4.5-1.5c2.5-.4 4.5-1.1 4.5-1.7 0-.5 1.1-.9 2.5-.9s2.5-.5 2.5-1c0-.6 1.1-1 2.5-1s2.5-.4 2.5-.9 1.3-1.1 2.9-1.4c3.6-.7 12.5-4.8 12.9-5.9.2-.4 1.1-.8 2-.8 1.9 0 22.6-10 23-11.2.2-.4 1-.8 1.8-.8s1.4-.5 1.4-1c0-.6.7-1 1.5-1 .9 0 3.3-1.1 5.5-2.5s4.4-2.5 5-2.5c.5 0 1-.4 1-.9s1.1-1.2 2.5-1.5c1.4-.4 2.5-1.1 2.5-1.6 0-.6.7-1 1.5-1s1.5-.5 1.5-1c0-.6.5-1 1-1 1.2 0 9.4-5.2 9.8-6.3.2-.4 1-.7 1.8-.7s1.4-.4 1.4-.9.8-1.2 1.9-1.6c1-.3 3.3-1.9 5-3.5 1.7-1.7 3.5-3 4-3s2.6-1.6 4.7-3.5 4.1-3.5 4.5-3.5c.5 0 1.9-1.1 3.3-2.5s2.9-2.5 3.3-2.5c.4 0 3-2.3 5.7-5 2.7-2.8 5.3-5 5.8-5 1.1 0 33.7-32.6 36.3-36.4 1.1-1.6 3.7-4.4 5.8-6.4 2-1.9 3.7-3.9 3.7-4.4 0-.4 1.6-2.5 3.5-4.5s3.5-4.1 3.5-4.5c0-.5 1.4-2.2 3-4 1.6-1.7 3-3.5 3-3.9 0-.4 1.1-1.9 2.5-3.3s2.5-3 2.5-3.6c0-.5.4-1 .9-1s1.3-1 1.7-2.3c.4-1.2 1.5-2.9 2.5-3.8 1.1-.9 1.9-2.1 1.9-2.6 0-.6.7-1.6 1.5-2.3.8-.7 1.5-1.9 1.5-2.8 0-.8.8-2.2 1.8-3.1 1.9-1.9 3.4-4.1 5.9-9.1.9-1.9 2-3.7 2.3-4 1.4-1.2 4-6.1 4-7.5 0-.8.5-1.5 1-1.5.6 0 1-.7 1-1.5s.5-1.5 1-1.5c.6 0 1-.9 1-2s.4-2 .9-2 1.2-1.2 1.6-2.7c.3-1.5 1.5-3.9 2.6-5.4 1-1.5 1.9-3.4 1.9-4.3 0-.9.4-1.6 1-1.6.5 0 1.2-1.6 1.6-3.5.3-1.9 1-3.5 1.5-3.5s.9-.7.9-1.5.4-1.5.8-1.5 1.7-2.9 2.7-6.5c1.1-3.6 2.3-6.5 2.8-6.5.4 0 .7-1.1.7-2.5s.3-2.5.8-2.5c1.1 0 3-4.9 3.8-9.8.4-2.3 1-4.2 1.5-4.2s.9-1.1.9-2.5.5-2.5 1-2.5c.6 0 1-1.1 1-2.4 0-1.4.4-2.7.9-3 .5-.4 1.2-2.9 1.6-5.6.4-2.7 1.1-5.2 1.6-5.6.5-.3.9-1.8.9-3.4 0-1.6.5-3.2 1-3.5.6-.3 1-1.9 1-3.5s.4-3.1.9-3.4c.5-.4 1.2-4 1.6-8.1.4-4.1 1.1-7.5 1.6-7.5s.9-2.3.9-5c0-2.8.5-5 1-5 .6 0 1-3.2 1-7.5 0-4.9.4-7.5 1.1-7.5.8 0 .8-.5-.1-1.5s-.9-1.5-.1-1.5c1.2 0 1.3-3.7 1.3-68.5 0-30.2-.3-42-1.1-42.3-.6-.2-1.1-2.8-1.1-6.2 0-3.2-.4-6.2-1-6.5-.5-.3-1-2.6-1-5s-.4-4.6-.9-4.9c-.5-.4-1.2-4-1.6-8.1-.4-4.2-1.1-7.8-1.6-8.1-.5-.3-.9-1.8-.9-3.4 0-1.6-.4-3.2-1-3.5-.5-.3-1-1.7-1-3.1 0-1.3-.4-2.4-.9-2.4-.4 0-1.1-2.7-1.5-6-.4-3.3-1.1-6.2-1.6-6.5-.6-.4-1-1.7-1-3.1 0-1.3-.4-2.4-1-2.4-.5 0-1-1.1-1-2.5s-.4-2.5-.9-2.5-1.2-2.1-1.6-4.6c-.4-2.6-1-5.4-1.5-6.3-.5-.9-1.5-3.1-2.2-4.9-.7-1.7-1.6-3.2-1.9-3.2-.4 0-.9-1.9-1.2-4.2-.3-2.4-1.1-4.4-1.6-4.6-.6-.2-1.1-1.2-1.1-2.2 0-1-.4-2.2-1-2.5-.5-.3-1-1.5-1-2.6 0-1-.4-1.9-1-1.9-.5 0-1-.4-1-1 0-1.7-3.4-9-4.2-9-.5 0-.8-.9-.8-2s-.4-2-1-2c-.5 0-1-.4-1-1 0-1.7-3.4-9-4.2-9-.5 0-.8-.9-.8-2s-.4-2-.9-2-1.2-1.1-1.5-2.5c-.4-1.4-1.1-2.5-1.6-2.5-.6 0-1-.9-1-2s-.4-2-1-2c-.5 0-1-.7-1-1.5s-.4-1.5-1-1.5c-.5 0-1.2-1.1-1.6-2.5-.3-1.4-1-2.5-1.5-2.5s-.9-.6-.9-1.3c0-.7-.8-2.2-1.9-3.3-1-1.1-2.2-3-2.5-4.2-.4-1.2-1.2-2.2-1.7-2.2s-.9-.6-.9-1.3c0-.7-.9-1.9-2-2.7-1.1-.8-2-2-2-2.7 0-.7-1.1-2.3-2.5-3.7-1.4-1.4-2.5-2.9-2.5-3.3 0-.5-1.1-2-2.5-3.5s-2.5-3.2-2.5-3.7-.8-1.6-1.8-2.3c-.9-.7-2.6-2.6-3.6-4.2-1.1-1.7-2.9-4-4-5.2-1.2-1.2-3-3.4-4.1-5-2.6-3.7-43.1-44.2-46.8-46.9-1.6-1.1-4.5-3.5-6.5-5.2-2-1.8-4.4-3.5-5.4-3.9-1-.3-1.8-.9-1.8-1.4 0-.4-3-3-6.7-5.6-3.8-2.7-7.4-5.4-8.1-6.1-.7-.7-1.9-1.3-2.6-1.3-.6 0-1.8-.9-2.6-2s-2-2-2.7-2c-.7 0-1.3-.4-1.3-.9s-1-1.3-2.2-1.7c-1.3-.4-3-1.5-3.9-2.5-.9-1.1-2.4-1.9-3.3-1.9-.9 0-1.6-.4-1.6-1 0-.5-1.1-1.2-2.5-1.6-1.4-.3-2.5-1-2.5-1.5s-.5-.9-1-.9c-.6 0-2-.9-3.2-2-1.1-1-3.4-2.2-4.9-2.5-1.6-.4-2.9-1.1-2.9-1.6s-.6-.9-1.3-.9c-.7 0-2.3-.9-3.5-2-1.2-1.1-3.5-2.3-5.2-2.6-1.6-.4-3-1-3-1.5s-.7-.9-1.5-.9-1.5-.5-1.5-1c0-.6-.9-1-2-1s-2-.4-2-.9-1.5-1.3-3.2-1.6c-1.8-.4-3.5-1-3.8-1.4-.9-1.2-5-3.1-6.5-3.1-.8 0-1.5-.5-1.5-1 0-.6-.8-1-1.7-1-1 0-3.1-.7-4.7-1.5-1.5-.8-3.7-1.5-4.7-1.5-1.1 0-1.9-.5-1.9-1 0-.6-.7-1-1.5-1s-1.5-.5-1.5-1c0-.6-1.1-1-2.4-1-1.4 0-2.7-.4-3-.9-.3-.4-2.4-1.1-4.6-1.5-2.2-.3-4-1.1-4-1.6 0-.6-1.3-1-3-1-1.6 0-3-.4-3-.9s-1.2-1.1-2.7-1.4c-12-2.5-14.3-3.1-14.3-3.9 0-.4-1.6-.8-3.5-.8s-3.5-.5-3.5-1c0-.6-1.5-1-3.3-1-1.8 0-3.7-.4-4.3-1-.5-.5-4.2-1.2-8.2-1.6-3.9-.4-7.2-1.1-7.2-1.5 0-.5-2.2-.9-5-.9-2.7 0-5-.4-5-.9s-2.6-1.2-5.7-1.5c-3.2-.3-9.8-1-14.8-1.5-4.9-.5-15.2-1-22.7-1C427.3 3 422 2.6 422 2c0-1.2-32.6-1.4-33.4-.2zM427 13c50.9 4.6 85.5 20 119.8 53.4 28.4 27.6 48.3 65.5 55.5 105.6 3.1 16.9 3.7 23.1 3.7 37.5 0 14.3-.6 20.3-3.6 37.5-1.6 8.9-2 10.5-5.5 21-12.9 39.3-33.8 69.7-64.9 94.5-33.8 26.9-78.6 43.5-117.3 43.5-35.2 0-64.5 6.5-93.2 20.6-21.9 10.8-39 23.1-56.3 40.6-22.9 23.2-38.2 48.1-48.7 79.3-1.1 3.4-2.3 7.9-5.1 20-3.6 16.1-4.8 52.7-2.1 69 7.4 44.9 26.8 83.5 57.1 113.9 14.5 14.5 29.2 25.5 46.1 34.6 10.1 5.5 11.9 6.7 10.7 7.3-.9.6-16.4-1.6-22.2-3.2-14.3-3.9-30.2-9.3-39.5-13.5-1.6-.8-5.5-2.4-8.5-3.7-12.4-5.1-43.4-21.4-56.7-29.8C135.3 702.7 84 644.8 52.7 579c-10.6-22.2-14.2-31.1-20.9-51.9-8.3-25.8-11.9-42.3-17-79.6-1.6-11.9-1.6-63.5.1-78 1.6-14.6 3.9-30.4 5.6-39 4.6-22.6 14.8-55.9 22.5-73 1-2.2 2.8-6.5 4.1-9.5 3.2-7.5 14.1-28.7 20.1-39 34.4-58.5 88.1-111.9 146.3-145.2 8.2-4.7 29.5-15.4 36.5-18.3 3.6-1.5 7.9-3.3 9.5-4.1 4.1-1.9 19-7.3 24.5-8.9 22.7-6.6 26.7-7.7 45.5-11.4 19.9-3.9 33.2-5.8 54-7.5 19.5-1.7 29.4-1.8 43.5-.6zm-2.9 548.4c12.6 3.9 21 11.3 26.7 23.4 3.3 7.1 3.6 8.5 4 19.3.5 12.7-.7 18.9-5.5 28.3-3.1 6.2-11.6 14.6-17.4 17.3-11.6 5.4-28 6.9-37.7 3.4-12-4.4-23.5-14.8-29.2-26.5-10.7-21.8 1-51.9 24.5-63.1 3.8-1.8 8.1-3.6 9.5-3.9 4.3-.8 20.3.3 25.1 1.8z"/><path d="M399.5 157.7c-15.4 3.3-29.6 13.8-35.8 26.5-4.1 8.5-4.9 12.5-4.4 23.8.4 11.9 1.2 15.3 5.3 23.4 8.8 17.3 23.9 26.6 43.4 26.6 23 0 43-14.9 49.7-37.2 1.9-6.4 2.1-21.2.4-25.9-5.6-14.7-15.2-25.7-28.2-32.1-9.9-4.9-22.1-6.9-30.4-5.1z"/></svg>